<?xml version="1.0" standalone="no"?><!DOCTYPE svg PUBLIC "-//W3C//DTD SVG 1.1//EN" "http://www.w3.org/Graphics/SVG/1.1/DTD/svg11.dtd"><svg t="1669812554517" class="icon" viewBox="0 0 1024 1024" version="1.1" xmlns="http://www.w3.org/2000/svg" p-id="1466" xmlns:xlink="http://www.w3.org/1999/xlink" width="200" height="200"><path d="M262.944443 491.871953c-0.512619 0.992555-1.343475 1.823411-1.792447 2.84864899-8.800538 18.304636-5.919204 40.703346 9.664077 55.42480801L624.064077 884.256202c19.26450701 18.208305 49.631179 17.344765 67.872168-1.888778 18.208305-19.26450701 17.37572899-49.631179-1.88877801-67.872168l-316.96040899-299.839269L688.80032299 210.368284c19.071845-18.399247 19.648112-48.767639 1.24714401-67.872168-9.407768-9.791372-21.984142-14.688778-34.560516-14.688778-12.000108 0-24.00021501 4.479398-33.311652 13.439914l-350.048434 337.375729c-0.672598 0.672598-0.927187 1.599785-1.599785 2.303346-0.512619 0.479935-1.056202 0.832576-1.567101 1.343475C266.240344 485.12017199 264.800538 488.608735 262.944443 491.871953z" p-id="1467"></path></svg>